<svg width="0" height="0" class="hidden">
  <symbol xmlns="http://www.w3.org/2000/svg" id="ALARM">
    <path d="M30.74 9.5a15.729 15.729 0 0 0-8.24-8.24C23.5.47 24.75 0 26.13 0 29.37 0 32 2.63 32 5.87c0 1.38-.47 2.63-1.26 3.63zM30.5 16c0 3.85-1.51 7.34-3.96 9.94l2.03 2.03c.26.27.43.64.43 1.05 0 .82-.66 1.48-1.48 1.48-.41 0-.78-.17-1.05-.43l-2.18-2.18a14.482 14.482 0 0 1-16.57.01l-2.16 2.16a1.498 1.498 0 1 1-2.12-2.12l2.01-2.01C3.01 23.33 1.5 19.85 1.5 16 1.5 7.99 7.99 1.5 16 1.5S30.5 7.99 30.5 16zM16 4.5C9.65 4.5 4.5 9.65 4.5 16S9.65 27.5 16 27.5 27.5 22.35 27.5 16 22.35 4.5 16 4.5zm6 13h-6c-.83 0-1.5-.67-1.5-1.5V8c0-.83.67-1.5 1.5-1.5s1.5.67 1.5 1.5v6.5H22c.83 0 1.5.67 1.5 1.5s-.67 1.5-1.5 1.5zM1.29 9.71A5.944 5.944 0 0 1 0 6c0-3.31 2.69-6 6-6 1.4 0 2.69.48 3.71 1.29a15.977 15.977 0 0 0-8.42 8.42z"
      fill="#95e1d3"></path>
  </symbol>
  <symbol xmlns="http://www.w3.org/2000/svg" id="BOOK">
    <path d="M31.06 25.89l-14.47 5.99c-.18.08-.38.12-.59.12-.21 0-.41-.04-.59-.12L.94 25.89C.39 25.67 0 25.13 0 24.5v-23C0 .67.67 0 1.5 0c.2 0 .4.04.57.11l.01.01h.01L16 5.88 29.91.12h.01l.01-.01c.17-.07.37-.11.57-.11.83 0 1.5.67 1.5 1.5v23c0 .63-.39 1.17-.94 1.39zM14.5 8.5L3 3.74V23.5l11.5 4.76V8.5zM29 3.74L17.5 8.5v19.76L29 23.5V3.74zm-9.12 6.89l5.5-2.5c.19-.08.4-.13.62-.13.83 0 1.5.67 1.5 1.5 0 .61-.36 1.13-.88 1.37l-5.5 2.5c-.19.08-.4.13-.62.13-.83 0-1.5-.67-1.5-1.5 0-.61.36-1.13.88-1.37zm0 5.5l5.5-2.5c.19-.08.4-.13.62-.13.83 0 1.5.67 1.5 1.5 0 .61-.36 1.13-.88 1.37l-5.5 2.5v-.01c-.19.09-.4.14-.62.14-.83 0-1.5-.67-1.5-1.5 0-.61.36-1.13.88-1.37zm0 5.5l5.5-2.5c.19-.08.4-.13.62-.13.83 0 1.5.67 1.5 1.5 0 .61-.36 1.13-.88 1.37l-5.5 2.5c-.19.08-.4.13-.62.13-.83 0-1.5-.67-1.5-1.5 0-.61.36-1.13.88-1.37zM6 8c.22 0 .43.05.62.13l5.5 2.5c.52.24.88.76.88 1.37 0 .83-.67 1.5-1.5 1.5a1.6 1.6 0 0 1-.62-.13l-5.5-2.5c-.52-.24-.88-.76-.88-1.37C4.5 8.67 5.17 8 6 8zm0 5.5c.22 0 .43.05.62.13l5.5 2.5c.52.24.88.76.88 1.37 0 .83-.67 1.5-1.5 1.5-.22 0-.43-.05-.62-.14v.01l-5.5-2.5c-.52-.24-.88-.76-.88-1.37 0-.83.67-1.5 1.5-1.5zM6 19c.22 0 .43.05.62.13l5.5 2.5c.52.24.88.76.88 1.37 0 .83-.67 1.5-1.5 1.5a1.6 1.6 0 0 1-.62-.13l-5.5-2.5c-.52-.24-.88-.76-.88-1.37 0-.83.67-1.5 1.5-1.5z"
      fill="#95e1d3"></path>
  </symbol>
  <symbol xmlns="http://www.w3.org/2000/svg" id="COMPUTER">
    <path d="M30 23h-9.5v2.5l2 2v.5h-13v-.5l2-2V23H2c-.83 0-1.5-.67-1.5-1.5v-20C.5.67 1.17 0 2 0h28c.83 0 1.5.67 1.5 1.5v20c0 .83-.67 1.5-1.5 1.5zm-.5-21h-27v17h27V2zM13 9c.41 0 .79.17 1.06.44l.94.94 2.94-2.94a1.498 1.498 0 1 1 2.12 2.12l-4 4c-.27.27-.65.44-1.06.44-.41 0-.79-.17-1.06-.44l-2-2A1.498 1.498 0 0 1 13 9z"
      fill="#95e1d3"></path>
  </symbol>
  <symbol xmlns="http://www.w3.org/2000/svg" id="facebook">
    <path d="M4.08 1.67c-1.46 1.49-1.51 4.4-1.63 7.35H.1v4.03h2.38V25.8h5.58V13h3.22c.25-1.35.49-2.41.84-3.98H8.09c.04-1.34-.21-3.2.21-3.84.76-1.16 3.8-.86 3.8-.86V.2C7.31.2 5.74 0 4.09 1.67z" 
    ></path>
  </symbol>
  <symbol xmlns="http://www.w3.org/2000/svg" id="HOME">
    <path d="M32 16.5c0 .83-.67 1.5-1.5 1.5-.4 0-.75-.16-1.02-.41v.01L16.04 4.16 16 4.12 2.55 17.57c-.27.27-.64.43-1.05.43a1.498 1.498 0 0 1-1.04-2.58L14.92.96C15.19.68 15.58.5 16 .5h.09c.02 0 .05.01.07.01.37.04.7.21.94.47l5.9 5.9V5.5c0-.83.67-1.5 1.5-1.5s1.5.67 1.5 1.5v4.38l5.6 5.6h-.01c.25.27.41.62.41 1.02zM29 19v10.5c0 .83-.67 1.5-1.5 1.5h-3V19h-6v12h-14c-.83 0-1.5-.67-1.5-1.5V19L16 6l13 13zm-15.5 0h-6v6h6v-6z"
      fill="#95e1d3"></path>
  </symbol>
  <symbol xmlns="http://www.w3.org/2000/svg" id="IMAGE">
    <path d="M31.5 32h-29c-.83 0-1.5-.67-1.5-1.5v-29C1 .67 1.67 0 2.5 0h29c.83 0 1.5.67 1.5 1.5v29c0 .83-.67 1.5-1.5 1.5zM30 3H4v26h26V3zM7.5 4.5H13c.83 0 1.5.67 1.5 1.5s-.67 1.5-1.5 1.5H8.5V12c0 .83-.67 1.5-1.5 1.5s-1.5-.67-1.5-1.5V4.5h2zM5.5 20c0-.83.67-1.5 1.5-1.5s1.5.67 1.5 1.5v4.5H13c.83 0 1.5.67 1.5 1.5s-.67 1.5-1.5 1.5H5.5V20zM21 4.5h7.5V12c0 .83-.67 1.5-1.5 1.5s-1.5-.67-1.5-1.5V7.5H21c-.83 0-1.5-.67-1.5-1.5s.67-1.5 1.5-1.5zm0 20h4.5V20c0-.83.67-1.5 1.5-1.5s1.5.67 1.5 1.5v7.5H21c-.83 0-1.5-.67-1.5-1.5s.67-1.5 1.5-1.5z"
      fill="#95e1d3"></path>
  </symbol>
  <symbol xmlns="http://www.w3.org/2000/svg" id="instagram">
    <path d="M22.7 25.8H3.5c-1.77 0-3.2-1.43-3.2-3.2V3.4C.3 1.63 1.73.2 3.5.2h19.2c1.77 0 3.2 1.43 3.2 3.2v19.2c0 1.77-1.43 3.2-3.2 3.2zM13.1 8.04c-2 0-3.71 1.18-4.5 2.88-.01.02-.02.04-.02.05-.05.11-.09.22-.13.33l-.06.15c-.04.11-.07.23-.1.34-.01.05-.02.11-.04.16l-.06.37c0 .05-.02.1-.02.15a4.96 4.96 0 0 0 4.93 5.49 4.96 4.96 0 0 0 4.93-5.49c0-.05-.02-.1-.02-.15l-.06-.37c-.02-.05-.03-.11-.04-.16-.03-.11-.06-.23-.1-.34l-.06-.15c-.04-.11-.08-.22-.13-.33 0-.01-.01-.03-.02-.05-.79-1.7-2.5-2.88-4.5-2.88zm9.92-3.68c0-.71-.57-1.28-1.28-1.28h-2.56c-.71 0-1.28.57-1.28 1.28v2.56c0 .71.57 1.28 1.28 1.28h2.56c.71 0 1.28-.57 1.28-1.28V4.36zm0 6.56h-2.36a7.84 7.84 0 1 1-15.12 0H3.18v10.72c0 .71.57 1.28 1.28 1.28h17.28c.71 0 1.28-.57 1.28-1.28V10.92z"
      ></path>
  </symbol>
  <symbol xmlns="http://www.w3.org/2000/svg" id="LINE_GRAPH">
    <path d="M30.5 33h-29C.67 33 0 32.33 0 31.5v-29C0 1.67.67 1 1.5 1h29c.83 0 1.5.67 1.5 1.5v29c0 .83-.67 1.5-1.5 1.5zM29 4H3v26h26V4zM5.22 17.24h-.01l4-2.5h.01c.22-.14.49-.22.78-.22.31 0 .6.09.84.25h.01l6.63 4.42 7.63-5.4c.25-.18.56-.28.89-.28a1.498 1.498 0 0 1 .88 2.71l-8.5 6c-.25.18-.55.29-.88.29-.32 0-.62-.11-.86-.28L9.98 17.8l-3.13 1.96c-.24.16-.54.26-.85.26a1.498 1.498 0 0 1-.78-2.78z"
      fill="#95e1d3"></path>
  </symbol>
  <symbol xmlns="http://www.w3.org/2000/svg" id="printerest">
    <path d="M10.37 18.1c.54.31 1.19.52 1.98.58.81.06 1.58-.09 2.24-.28.67-.2 1.26-.49 1.75-.81 2.02-1.32 3.36-3.63 3.84-6.46.13-.76.31-1.51.31-2.37 0-.85-.2-1.6-.4-2.29-.39-1.33-1-2.39-1.83-3.31a8.783 8.783 0 0 0-2.98-2.15A9.63 9.63 0 0 0 10.95.2c-.57.03-1.1.06-1.61.13-1.53.22-2.79.69-3.91 1.35a9.318 9.318 0 0 0-3.46 3.56c-.39.72-.75 1.61-.94 2.58-.2 1-.2 2.2 0 3.24.32 1.7 1.12 3.01 2.42 3.73.17.1.43.25.64.24.5-.01.51-.6.62-1.02.09-.35.3-.84.12-1.16-.13-.23-.33-.4-.46-.6-.42-.63-.68-1.45-.68-2.5 0-1.36.33-2.46.84-3.41.96-1.82 2.6-3.14 4.91-3.53 1.28-.22 2.71-.11 3.75.23 1.05.34 1.91.95 2.51 1.71.64.8 1.04 1.83 1.13 3.12.05.7 0 1.4-.07 2.01-.21 1.9-.76 3.5-1.67 4.69-.57.74-1.42 1.53-2.65 1.57-.7.02-1.2-.15-1.62-.46-.41-.3-.71-.7-.85-1.28-.15-.63.03-1.23.19-1.81.32-1.18.67-2.09.94-3.31.12-.54.23-1.28.08-1.89-.14-.58-.43-.99-.87-1.25-.42-.25-1.11-.35-1.73-.13-.98.34-1.62 1.28-1.89 2.34-.16.6-.21 1.25-.14 1.94.06.61.21 1.12.43 1.7.03.08-.06.31-.09.45-.49 2.08-.95 4.1-1.44 6.16-.25 1.08-.53 2.17-.59 3.47-.05 1.14-.15 2.32-.01 3.34.03.19.04.32.17.34.17.04.05.3.63-.36.87-1 1.52-2.24 2.04-3.52.31-.77.5-1.63.72-2.47.22-.85.43-1.73.64-2.56.32.57.78.94 1.32 1.24z"
      ></path>
  </symbol>
  <symbol xmlns="http://www.w3.org/2000/svg" id="twitter">
    <path d="M16.87.68c-.41.09-.81.2-1.17.36-1.49.65-2.51 1.85-2.97 3.53-.19.67-.26 1.78-.03 2.47-.84 0-1.65-.13-2.36-.31-2.77-.68-4.5-1.6-6.42-3.1-.56-.44-1.12-.94-1.56-1.49-.14-.18-.37-.34-.47-.55-.01 0-.02-.01-.03-.01-.22.41-.43.86-.56 1.37-.52 2 .3 3.68 1.18 4.76.27.33.7.54.96.84h.03c-.2.07-.54-.03-.72-.06-.41-.08-.76-.16-1.1-.31-.18-.08-.36-.17-.54-.26-.01 2.21 1.11 3.64 2.47 4.5.45.28 1.07.65 1.72.69-.35.29-1.83.16-2.34.1.64 1.66 1.63 2.76 3.33 3.36.44.15.97.29 1.56.28-.31.37-.98.67-1.42.93-.91.53-1.96.88-3.15 1.14-.48.1-.98.08-1.5.17-.57.09-1.17-.05-1.68-.06.15.09.31.19.46.28.47.29.96.54 1.49.77.95.42 1.97.73 3.09 1.01 2.26.56 5.46.31 7.43-.31 5.5-1.71 8.98-5.72 10.29-11.61.23-1.01.26-2.17.24-3.37.27-.22.55-.43.82-.65.68-.54 1.31-1.3 1.78-2.04V3.1c-.89.28-1.83.79-2.97.8v-.01c.22-.09.4-.27.58-.41.8-.62 1.32-1.43 1.7-2.47-.22.12-.44.24-.65.36-.67.34-1.81.83-2.69.91C20.64 1.34 19.55.6 17.52.63c-.21.02-.43.05-.64.08z"
      ></path>
  </symbol>
</svg>