<svg xmlns="http://www.w3.org/2000/svg" width="33" height="33"><style></style><path id="LINE GRAPH" d="M30.5 33h-29C.67 33 0 32.33 0 31.5v-29C0 1.67.67 1 1.5 1h29c.83 0 1.5.67 1.5 1.5v29c0 .83-.67 1.5-1.5 1.5zM29 4H3v26h26V4zM5.22 17.24h-.01l4-2.5h.01c.22-.14.49-.22.78-.22.31 0 .6.09.84.25h.01l6.63 4.42 7.63-5.4c.25-.18.56-.28.89-.28a1.498 1.498 0 0 1 .88 2.71l-8.5 6c-.25.18-.55.29-.88.29-.32 0-.62-.11-.86-.28L9.98 17.8l-3.13 1.96c-.24.16-.54.26-.85.26a1.498 1.498 0 0 1-.78-2.78z" fill="#95e1d3"/></svg>