<svg xmlns="http://www.w3.org/2000/svg" width="32" height="31"><style/><path id="ALARM" d="M30.74 9.5a15.729 15.729 0 0 0-8.24-8.24C23.5.47 24.75 0 26.13 0 29.37 0 32 2.63 32 5.87c0 1.38-.47 2.63-1.26 3.63zM30.5 16c0 3.85-1.51 7.34-3.96 9.94l2.03 2.03c.26.27.43.64.43 1.05 0 .82-.66 1.48-1.48 1.48-.41 0-.78-.17-1.05-.43l-2.18-2.18a14.482 14.482 0 0 1-16.57.01l-2.16 2.16a1.498 1.498 0 1 1-2.12-2.12l2.01-2.01C3.01 23.33 1.5 19.85 1.5 16 1.5 7.99 7.99 1.5 16 1.5S30.5 7.99 30.5 16zM16 4.5C9.65 4.5 4.5 9.65 4.5 16S9.65 27.5 16 27.5 27.5 22.35 27.5 16 22.35 4.5 16 4.5zm6 13h-6c-.83 0-1.5-.67-1.5-1.5V8c0-.83.67-1.5 1.5-1.5s1.5.67 1.5 1.5v6.5H22c.83 0 1.5.67 1.5 1.5s-.67 1.5-1.5 1.5zM1.29 9.71A5.944 5.944 0 0 1 0 6c0-3.31 2.69-6 6-6 1.4 0 2.69.48 3.71 1.29a15.977 15.977 0 0 0-8.42 8.42z" fill="#95e1d3"/></svg>