<svg xmlns="http://www.w3.org/2000/svg" width="26" height="26"><style/><path id="instagram" d="M22.7 25.8H3.5c-1.77 0-3.2-1.43-3.2-3.2V3.4C.3 1.63 1.73.2 3.5.2h19.2c1.77 0 3.2 1.43 3.2 3.2v19.2c0 1.77-1.43 3.2-3.2 3.2zM13.1 8.04c-2 0-3.71 1.18-4.5 2.88-.01.02-.02.04-.02.05-.05.11-.09.22-.13.33l-.06.15c-.04.11-.07.23-.1.34-.01.05-.02.11-.04.16l-.06.37c0 .05-.02.1-.02.15a4.96 4.96 0 0 0 4.93 5.49 4.96 4.96 0 0 0 4.93-5.49c0-.05-.02-.1-.02-.15l-.06-.37c-.02-.05-.03-.11-.04-.16-.03-.11-.06-.23-.1-.34l-.06-.15c-.04-.11-.08-.22-.13-.33 0-.01-.01-.03-.02-.05-.79-1.7-2.5-2.88-4.5-2.88zm9.92-3.68c0-.71-.57-1.28-1.28-1.28h-2.56c-.71 0-1.28.57-1.28 1.28v2.56c0 .71.57 1.28 1.28 1.28h2.56c.71 0 1.28-.57 1.28-1.28V4.36zm0 6.56h-2.36a7.84 7.84 0 1 1-15.12 0H3.18v10.72c0 .71.57 1.28 1.28 1.28h17.28c.71 0 1.28-.57 1.28-1.28V10.92z" fill="#f38181"/></svg>