<svg xmlns="http://www.w3.org/2000/svg" width="21" height="26"><style/><path id="pinterest" d="M10.37 18.1c.54.31 1.19.52 1.98.58.81.06 1.58-.09 2.24-.28.67-.2 1.26-.49 1.75-.81 2.02-1.32 3.36-3.63 3.84-6.46.13-.76.31-1.51.31-2.37 0-.85-.2-1.6-.4-2.29-.39-1.33-1-2.39-1.83-3.31a8.783 8.783 0 0 0-2.98-2.15A9.63 9.63 0 0 0 10.95.2c-.57.03-1.1.06-1.61.13-1.53.22-2.79.69-3.91 1.35a9.318 9.318 0 0 0-3.46 3.56c-.39.72-.75 1.61-.94 2.58-.2 1-.2 2.2 0 3.24.32 1.7 1.12 3.01 2.42 3.73.17.1.43.25.64.24.5-.01.51-.6.62-1.02.09-.35.3-.84.12-1.16-.13-.23-.33-.4-.46-.6-.42-.63-.68-1.45-.68-2.5 0-1.36.33-2.46.84-3.41.96-1.82 2.6-3.14 4.91-3.53 1.28-.22 2.71-.11 3.75.23 1.05.34 1.91.95 2.51 1.71.64.8 1.04 1.83 1.13 3.12.05.7 0 1.4-.07 2.01-.21 1.9-.76 3.5-1.67 4.69-.57.74-1.42 1.53-2.65 1.57-.7.02-1.2-.15-1.62-.46-.41-.3-.71-.7-.85-1.28-.15-.63.03-1.23.19-1.81.32-1.18.67-2.09.94-3.31.12-.54.23-1.28.08-1.89-.14-.58-.43-.99-.87-1.25-.42-.25-1.11-.35-1.73-.13-.98.34-1.62 1.28-1.89 2.34-.16.6-.21 1.25-.14 1.94.06.61.21 1.12.43 1.7.03.08-.06.31-.09.45-.49 2.08-.95 4.1-1.44 6.16-.25 1.08-.53 2.17-.59 3.47-.05 1.14-.15 2.32-.01 3.34.03.19.04.32.17.34.17.04.05.3.63-.36.87-1 1.52-2.24 2.04-3.52.31-.77.5-1.63.72-2.47.22-.85.43-1.73.64-2.56.32.57.78.94 1.32 1.24z" fill="#f38181"/></svg>