<svg xmlns="http://www.w3.org/2000/svg" viewBox="0 0 18 15" width="18" height="15"><style/><path id="SHOPPING CART" d="M17.73 3.66l-2.48 5.5c-.12.27-.38.47-.7.49l-7.12.47.41 1.18h7.76c.91 0 1.65.74 1.65 1.65 0 .91-.74 1.65-1.65 1.65-.91 0-1.65-.74-1.65-1.65h-7.7c0 .91-.74 1.65-1.65 1.65-.91 0-1.65-.74-1.65-1.65 0-.91.74-1.65 1.65-1.65h1.49L2.91 2.22H1.03A.82.82 0 0 1 .2 1.4c0-.46.37-.83.83-.83H3.5c.36 0 .66.24.78.56l.48 1.37h12.22a.824.824 0 0 1 .75 1.16zm-12.39.49l1.52 4.36 7.09-.48 1.75-3.88H5.34z" fill="#fff"/></svg>