<svg xmlns="http://www.w3.org/2000/svg" width="26" height="22"><style/><path id="twitter" d="M16.87.68c-.41.09-.81.2-1.17.36-1.49.65-2.51 1.85-2.97 3.53-.19.67-.26 1.78-.03 2.47-.84 0-1.65-.13-2.36-.31-2.77-.68-4.5-1.6-6.42-3.1-.56-.44-1.12-.94-1.56-1.49-.14-.18-.37-.34-.47-.55-.01 0-.02-.01-.03-.01-.22.41-.43.86-.56 1.37-.52 2 .3 3.68 1.18 4.76.27.33.7.54.96.84h.03c-.2.07-.54-.03-.72-.06-.41-.08-.76-.16-1.1-.31-.18-.08-.36-.17-.54-.26-.01 2.21 1.11 3.64 2.47 4.5.45.28 1.07.65 1.72.69-.35.29-1.83.16-2.34.1.64 1.66 1.63 2.76 3.33 3.36.44.15.97.29 1.56.28-.31.37-.98.67-1.42.93-.91.53-1.96.88-3.15 1.14-.48.1-.98.08-1.5.17-.57.09-1.17-.05-1.68-.06.15.09.31.19.46.28.47.29.96.54 1.49.77.95.42 1.97.73 3.09 1.01 2.26.56 5.46.31 7.43-.31 5.5-1.71 8.98-5.72 10.29-11.61.23-1.01.26-2.17.24-3.37.27-.22.55-.43.82-.65.68-.54 1.31-1.3 1.78-2.04V3.1c-.89.28-1.83.79-2.97.8v-.01c.22-.09.4-.27.58-.41.8-.62 1.32-1.43 1.7-2.47-.22.12-.44.24-.65.36-.67.34-1.81.83-2.69.91C20.64 1.34 19.55.6 17.52.63c-.21.02-.43.05-.64.08z" fill="#f38181"/></svg>