<svg xmlns="http://www.w3.org/2000/svg" width="32" height="31"><style></style><path id="HOME" d="M32 16.5c0 .83-.67 1.5-1.5 1.5-.4 0-.75-.16-1.02-.41v.01L16.04 4.16 16 4.12 2.55 17.57c-.27.27-.64.43-1.05.43a1.498 1.498 0 0 1-1.04-2.58L14.92.96C15.19.68 15.58.5 16 .5h.09c.02 0 .05.01.07.01.37.04.7.21.94.47l5.9 5.9V5.5c0-.83.67-1.5 1.5-1.5s1.5.67 1.5 1.5v4.38l5.6 5.6h-.01c.25.27.41.62.41 1.02zM29 19v10.5c0 .83-.67 1.5-1.5 1.5h-3V19h-6v12h-14c-.83 0-1.5-.67-1.5-1.5V19L16 6l13 13zm-15.5 0h-6v6h6v-6z" fill="#95e1d3"/></svg>