<svg xmlns="http://www.w3.org/2000/svg" width="34" height="32"><style></style><path id="IMAGE" d="M31.5 32h-29c-.83 0-1.5-.67-1.5-1.5v-29C1 .67 1.67 0 2.5 0h29c.83 0 1.5.67 1.5 1.5v29c0 .83-.67 1.5-1.5 1.5zM30 3H4v26h26V3zM7.5 4.5H13c.83 0 1.5.67 1.5 1.5s-.67 1.5-1.5 1.5H8.5V12c0 .83-.67 1.5-1.5 1.5s-1.5-.67-1.5-1.5V4.5h2zM5.5 20c0-.83.67-1.5 1.5-1.5s1.5.67 1.5 1.5v4.5H13c.83 0 1.5.67 1.5 1.5s-.67 1.5-1.5 1.5H5.5V20zM21 4.5h7.5V12c0 .83-.67 1.5-1.5 1.5s-1.5-.67-1.5-1.5V7.5H21c-.83 0-1.5-.67-1.5-1.5s.67-1.5 1.5-1.5zm0 20h4.5V20c0-.83.67-1.5 1.5-1.5s1.5.67 1.5 1.5v7.5H21c-.83 0-1.5-.67-1.5-1.5s.67-1.5 1.5-1.5z" fill="#95e1d3"/></svg>